<svg xmlns="http://www.w3.org/2000/svg" width="256" height="256"><path fill-opacity=".016" d="M0 128.004v128.004l128.25-.254 128.25-.254.254-127.75L257.008 0H0v128.004m.485.496c0 70.4.119 99.053.265 63.672.146-35.38.146-92.98 0-128C.604 29.153.485 58.1.485 128.5" fill="#1976D2" fill-rule="evenodd"/><path fill-opacity=".123" d="M22.814 78.75c-7.829 7.902-10.916 11.742-11.65 14.492-1.145 4.291-.545 4.984 3.597 4.156 2.032-.407 6.542-4.179 14.313-11.972L40.42 74.048l-2.897-3.024C35.929 69.361 34.365 68 34.046 68c-.319 0-5.373 4.838-11.232 10.75M161 69.259c0 1.021 1.422 1.727 4.37 2.169 17.126 2.569 24.71 24.393 12.827 36.914-9.695 10.215-26.334 9.189-34.51-2.128-2.522-3.49-3.174-5.495-3.511-10.794-.558-8.759 1.585-14.205 7.617-19.362 5.601-4.787 4.859-6.598-1.013-2.471-8.776 6.168-12.442 20.09-7.877 29.913 2.313 4.977 8.41 10.908 13.315 12.951 4.606 1.919 14.741 2.011 19.137.174 8.104-3.386 14.275-11.703 15.337-20.67 1.519-12.831-8.364-25.44-21.6-27.556-3.276-.524-4.092-.353-4.092.86m62 .219c-17.384 5.625-22.807 28.377-9.872 41.423 4.821 4.863 10.25 7.051 17.557 7.077 7.007.025 10.349-1.004 15.145-4.662 2.354-1.795 3.026-2.86 2.278-3.608-.748-.748-1.584-.602-2.834.495-7.772 6.817-20.085 6.992-28.717.408-7.67-5.85-10.278-19.003-5.474-27.605 8.938-16.003 31.514-15.749 39.436.443 2.48 5.07 2.703 6.365 2.175 12.665-.425 5.07-.269 6.911.563 6.634 1.774-.592 3.007-6.731 2.398-11.944-1.829-15.672-17.831-26.122-32.655-21.326M73.19 71.026C70.266 72.808 67 78.054 67 80.968c0 2.178 2.815.904 3.432-1.553 2.311-9.209 16.399-10.076 19.493-1.2C90.516 79.911 91 86.894 91 93.733c0 9.501.295 12.336 1.25 12.02.89-.295 1.394-4.523 1.75-14.674.495-14.118.528-14.283 3.306-16.669 4.069-3.495 9.676-3.291 13.928.506l3.266 2.917.341 15.637c.246 11.284.663 15.529 1.5 15.251 1.561-.518 2.136-24.974.703-29.878-.593-2.031-2.691-5.082-4.717-6.861-3.365-2.954-4.076-3.168-9.156-2.746-4.611.382-5.963.967-8.312 3.595-2.678 2.998-2.852 3.051-3.861 1.165-2.637-4.927-12.029-6.494-17.808-2.97m-71.492 1.61C1.314 73.019 1 83.608 1 96.167V119h39V99.417c0-15.222-.278-19.491-1.25-19.168-.923.307-1.321 5.037-1.523 18.083L36.954 116H4V75h10.583c8.022 0 10.483-.303 10.169-1.25-.454-1.367-21.772-2.397-23.054-1.114m31.899.208c-.346.56-.142 1.319.453 1.687 1.538.95 2.53-.351 1.246-1.635-.718-.718-1.277-.735-1.699-.052m-11.42 11.534C13.937 92.82 13.072 94 15.122 94c1.639 0 17.91-16.139 17.287-17.147-1.001-1.619-2.084-.822-10.232 7.525M153.5 79.426c-9.766 5.877-10.997 18.279-2.568 25.893 5.2 4.698 11.038 5.672 17.326 2.891 2.466-1.091 4.812-2.514 5.213-3.163 1.411-2.283-.53-2.372-4.838-.221-4.874 2.435-7.211 2.663-11.318 1.107-6.687-2.533-10.464-9.923-8.348-16.333 2.777-8.415 12.967-12.213 19.958-7.439 1.884 1.286 4.141 3.635 5.015 5.219 1.56 2.827 3.219 3.644 3.808 1.877.514-1.542-4.148-7.61-7.67-9.983-4.608-3.106-11.266-3.045-16.578.152m65.5 2.866c0 1.33 8.016 9.708 9.288 9.708 1.804 0 .349-2.794-3.496-6.712-4.374-4.456-5.792-5.19-5.792-2.996m10.733 9.474C219.547 101.983 217.39 105 220.267 105c1.995 0 23.074-21.639 22.3-22.892-.377-.61-1.004-1.108-1.393-1.108s-5.538 4.845-11.441 10.766m-162.507 9.402c.184 11.533.641 17.289 1.391 17.539.615.204 1.393-1.008 1.73-2.694.337-1.685 1.727-4.178 3.088-5.539 5.347-5.347 15.706-2.017 17.217 5.535.756 3.78 2.483 3.41 3.564-.764 2.555-9.857 18.085-9.258 20.29.782.833 3.793 2.494 3.865 2.494.108 0-5.433-6.657-11.135-13-11.135-3.721 0-8.359 2.247-10.27 4.975-1.362 1.944-1.453 1.924-4.201-.945-4.599-4.8-12.758-5.26-17.354-.979L70 110.078V97.039C70 86.026 69.763 84 68.476 84c-1.316 0-1.486 2.336-1.25 17.168M172 91.345c0 1.519 3.136 4.655 4.654 4.655 1.523 0 5.785-4.894 4.971-5.708-.394-.394-1.649-.134-2.788.578-1.487.928-2.379.988-3.155.212-1.508-1.508-3.682-1.352-3.682.263m60 4.447c0 1.26 8.449 9.208 9.788 9.208 2.041 0 1.388-1.245-2.996-5.712-3.868-3.941-6.792-5.446-6.792-3.496M1.595 127.307c-3.828 2.799.227 8.85 4.764 7.109 2.529-.971 1.946-1.999-1.109-1.955-2.096.03-2.75-.436-2.75-1.961 0-1.527.653-1.99 2.763-1.96 1.52.023 2.61-.427 2.422-1-.534-1.626-4.003-1.759-6.09-.233m8.072-.64c-1.042 1.041-.782 7.144.333 7.833.55.34 1-.153 1-1.096 0-1.587.149-1.58 2 .096 1.1.995 2 1.317 2 .714s-.472-1.388-1.049-1.744c-.718-.444-.682-1.089.112-2.046.639-.769.9-2.079.58-2.911-.588-1.532-3.753-2.07-4.976-.846m6.526 3.583c.255 3.533.687 4.304 2.557 4.57 1.238.175 2.25-.162 2.25-.75 0-.589-.675-1.07-1.5-1.07s-1.5-.45-1.5-1 .675-1 1.5-1c2.118 0 1.877-1.986-.25-2.063-1.341-.049-1.224-.275.5-.968 3.109-1.25 2.814-1.969-.807-1.969-2.979 0-3.05.11-2.75 4.25m7.302-.24c-.994 2.206-1.523 4.295-1.175 4.643.348.348.917-.106 1.263-1.01.826-2.15 3.063-2.099 4.292.099.536.958 1.265 1.451 1.62 1.097.572-.573-3.041-8.839-3.863-8.839-.181 0-1.142 1.805-2.137 4.01m7.203-2.689c.401.648.603 2.371.45 3.829-.153 1.459.201 2.948.787 3.31.676.418 1.065-.621 1.065-2.842 0-1.925.45-3.778 1-4.118.596-.368 1 .833 1 2.972 0 3.865 1.732 5.309 4.75 3.959 1.535-.687 1.474-.831-.5-1.176-2.502-.438-3.106-2.255-.75-2.255 2.118 0 1.877-1.986-.25-2.063-1.341-.049-1.224-.275.5-.968 3.483-1.4 2.721-1.826-3.265-1.826-3.977 0-5.312.328-4.787 1.178m47.334 3.429c.027 4.057.217 4.506 1.304 3.077 1.189-1.564 1.342-1.564 2.351 0 .593.92 1.42 1.346 1.838.947.418-.399.162-1.446-.568-2.326-1.105-1.331-1.104-1.739.003-2.423 2.062-1.275.402-4.025-2.429-4.025-2.357 0-2.529.326-2.499 4.75M85 130.5c0 4.449.038 4.5 3.393 4.5 2.094 0 3.613-.574 3.969-1.5.769-2.005 2.617-1.896 4.246.25 2.072 2.729 1.694-.525-.551-4.742l-1.859-3.492-1.784 3.742c-1.093 2.293-2.487 3.742-3.599 3.742-.998 0-1.815-.45-1.815-1s.675-1 1.5-1c2.077 0 1.888-1.752-.25-2.311-1.667-.435-1.667-.463 0-.573 2.736-.181 2.051-2.116-.75-2.116-2.296 0-2.5.367-2.5 4.5m14.193-.259c.229 3.166.77 4.33 2.131 4.588 2.036.386 5.676-2.444 5.676-4.413 0-2.088-2.968-4.416-5.629-4.416-2.306 0-2.464.308-2.178 4.241m41.807-.863c0 3.697 2.113 6.176 4.487 5.265 1.056-.405 1.473-1.872 1.381-4.862-.13-4.224-.14-4.235-.75-.86-.865 4.784-3.118 5.263-3.118.662 0-1.971-.45-3.583-1-3.583s-1 1.52-1 3.378m8.136 1.302c.075 2.651.325 3.853.556 2.672.231-1.181 1.334-2.387 2.451-2.679 2.718-.711 2.042-4.072-.903-4.493-2.069-.295-2.23.048-2.104 4.5m6.057-.43c.249 3.452.706 4.307 2.432 4.553 2.309.33 5.375-2.126 5.375-4.303 0-2.162-2.924-4.5-5.629-4.5-2.306 0-2.464.307-2.178 4.25m9.859-.352c-2.261 4.431-2.298 6.308-.072 3.626 1.653-1.991 2.994-1.926 4.628.226 2.062 2.717 1.699-.517-.528-4.699l-1.837-3.448-2.191 4.295m6.819-2.627c.621.621 1.129 2.641 1.129 4.488 0 2.121.392 3.117 1.065 2.701.586-.362.988-1.851.894-3.309-.289-4.475.29-4.878.933-.651.523 3.44.993 4.044 3.358 4.316 1.512.174 2.75-.163 2.75-.75 0-.586-.9-1.066-2-1.066s-2-.45-2-1 .9-1 2-1c2.771 0 2.531-1.985-.25-2.063l-2.25-.064 2.25-.904c3.496-1.405 2.717-1.826-3.379-1.826-4.179 0-5.338.29-4.5 1.128m41.322 2.979c.249 3.452.706 4.307 2.432 4.553 2.309.33 5.375-2.126 5.375-4.303 0-2.162-2.924-4.5-5.629-4.5-2.306 0-2.464.307-2.178 4.25m8.716-3.781c-.05.292-.091 1.881-.091 3.531 0 1.65.041 3.424.091 3.943.116 1.207 10.091 1.168 10.091-.039 0-.497-.675-.904-1.5-.904-1.03 0-1.5-1.033-1.5-3.296 0-3.054-.256-3.312-3.5-3.531-1.925-.13-3.541.003-3.591.296M233 130.5c0 4.133.204 4.5 2.5 4.5 1.375 0 2.5-.45 2.5-1s-.675-1-1.5-1-1.5-.45-1.5-1 .675-1 1.5-1c2.117 0 1.877-1.985-.25-2.07-1.486-.06-1.448-.192.25-.875 2.818-1.134 3.5-.44 3.5 3.563 0 4.69 1.689 3.436 2.171-1.612l.382-4.006H233v4.5m11 0c0 4.133.204 4.5 2.5 4.5 1.375 0 2.5-.45 2.5-1s-.9-1-2-1-2-.45-2-1 .9-1 2-1c2.771 0 2.531-1.985-.25-2.063l-2.25-.064 2.25-.904c2.953-1.187 2.854-1.969-.25-1.969-2.296 0-2.5.367-2.5 4.5M80 128c0 .55.477 1 1.059 1s.781-.45.441-1-.816-1-1.059-1-.441.45-.441 1m21 2.038c0 2.415.388 3.034 1.739 2.774 2.522-.486 2.724-3.494.321-4.78-1.875-1.003-2.06-.823-2.06 2.006m114 0c0 2.415.388 3.034 1.739 2.774 2.522-.486 2.724-3.494.321-4.78-1.875-1.003-2.06-.823-2.06 2.006m9.554-2.136c-1.858.727-1.847.788.25 1.336 1.493.391 2.196.124 2.196-.832 0-.773-.113-1.374-.25-1.336-.137.039-1.126.413-2.196.832m-73.741.781c.721.289 1.584.253 1.916-.079.332-.332-.258-.568-1.312-.525-1.165.048-1.402.285-.604.604M157 130.5c0 1.982.439 2.562 1.75 2.31.963-.186 1.75-1.225 1.75-2.31s-.787-2.124-1.75-2.31c-1.311-.252-1.75.328-1.75 2.31m66 1.5c0 .55.9 1 2 1s2-.45 2-1-.9-1-2-1-2 .45-2 1M8 143c0 .661 39.5 1 116.5 1s116.5-.339 116.5-1-39.5-1-116.5-1S8 142.339 8 143m4.024 11.188c-8.095 5.494-10.537 15.568-5.812 23.975 5.384 9.579 18.982 11.594 27.856 4.127 2.841-2.391 2.92-2.646 1.355-4.375-1.603-1.772-1.781-1.743-5.138.817-2.614 1.993-4.635 2.652-8.132 2.65-10.135-.005-15.895-8.802-11.637-17.775 3.221-6.788 13.549-8.948 19.368-4.051 2.497 2.101 3.401 2.362 5.077 1.465 2.852-1.527 2.573-2.512-1.618-5.709-3.048-2.324-4.839-2.847-10.75-3.136-6.141-.3-7.56-.03-10.569 2.012m71.643-1.521c-.367.366-.667 8.016-.667 17V186h2.458c2.366 0 2.469-.281 2.75-7.487l.292-7.487 5.786 7.487c4.424 5.725 6.366 7.487 8.25 7.487 1.355 0 2.464-.502 2.464-1.116 0-.614-2.258-3.989-5.017-7.5-4.36-5.549-4.743-6.384-2.923-6.384 3.265 0 7.94-5.292 7.94-8.989 0-4.433-1.63-6.958-5.548-8.596-3.442-1.438-14.568-1.965-15.785-.748M152 165.796c0 15.734.846 18.008 7.519 20.21 4.669 1.541 8.594.529 12.09-3.118l2.891-3.014v-13.687c0-13.282-.064-13.696-2.169-13.996-2.118-.302-2.178.005-2.5 12.841-.316 12.537-.444 13.241-2.768 15.12-2.467 1.995-6.367 1.873-8.563-.269-.55-.536-1.225-6.917-1.5-14.179-.483-12.757-.576-13.215-2.75-13.524-2.241-.318-2.25-.263-2.25 13.616M223 169v17l8.25-.002c9.57-.001 14.028-1.728 17.364-6.724 4.605-6.896 3.762-16.098-2.001-21.861-3.822-3.822-8.888-5.4-17.363-5.407L223 152v17M88.667 157.667c-.367.366-.667 2.391-.667 4.5V166h4.429c6.855 0 9.909-4.249 5.348-7.443-2.243-1.572-7.879-2.122-9.11-.89M228 168.862V181h4.351c9.168 0 13.649-3.744 13.649-11.403 0-7.631-3.615-11.182-12.441-12.219l-5.559-.653v12.137" fill="#1976D2" fill-rule="evenodd"/><path fill-opacity=".187" d="M23.291 79.251C12.909 89.703 9.819 94.279 11.407 96.849c1.582 2.56 7.812-1.536 18.23-11.987l10.827-10.86-3-2.999-3-3-11.173 11.248m52.127-9.282C72.316 71.224 68 76.814 68 79.577 68 80.91 68.45 82 69 82s1-.8 1-1.777c0-5.365 7.828-10.095 13.57-8.2C90.087 74.174 91 76.576 91 91.576c0 7.318.407 13.557.904 13.865.516.319 1.053-5.419 1.25-13.377.343-13.801.374-13.965 3.237-16.951 3.633-3.791 7.38-4.653 11.939-2.748 5.764 2.408 6.67 5.408 6.67 22.085 0 9.033.379 14.55 1 14.55.623 0 .999-5.748.996-15.25-.003-13.361-.245-15.647-1.956-18.451-2.218-3.64-6.69-6.299-10.589-6.299-3.588 0-9.283 2.818-10.575 5.232-1.029 1.922-1.121 1.909-3.715-.508-4.943-4.606-9.666-5.809-14.743-3.755M161 70c0 .55 1.364 1 3.032 1 6.209 0 14.538 5.358 17.673 11.369 6.01 11.524 1.656 25.282-9.81 30.996-14.295 7.124-30.323-1.618-32.533-17.743-.948-6.911 1.801-13.684 7.709-18.996 2.711-2.437 4.929-4.7 4.929-5.029 0-3.006-9.349 5.206-12.128 10.653-6.213 12.179-1.341 26.652 11.135 33.08 4.843 2.495 6.294 2.777 12.262 2.382 5.221-.345 7.851-1.115 11.5-3.366 5.411-3.337 10.613-11.082 11.604-17.275 1.557-9.742-3.836-20.309-12.912-25.298C168.553 69.076 161 68.001 161 70m59.5.866c-8.943 4.073-15.218 14.888-14.224 24.515 1.957 18.967 22.828 28.974 38.365 18.396 5.334-3.631 3.937-5.054-1.589-1.619-9.573 5.951-20.232 4.772-28.076-3.107-8.994-9.033-9.325-21.378-.821-30.603 10.179-11.043 27.347-9.721 35.586 2.742 2.488 3.762 2.759 5.039 2.759 12.991 0 4.851.307 8.82.683 8.819 2.414-.001 2.857-13.737.613-19-5.286-12.395-21.166-18.659-33.296-13.134M33.188 73.063c.24.721 1.028 1.509 1.75 1.75.75.25 1.125-.125.875-.875-.241-.722-1.029-1.51-1.75-1.75-.75-.25-1.125.125-.875.875M1 96v23h39v-19c0-11.701-.375-19-.977-19-.589 0-1.085 7.049-1.25 17.75L37.5 116.5l-17.25.274-17.25.273V75h10.441c5.882 0 10.711-.437 11.059-1 .399-.646-3.656-1-11.441-1H1v23m21.164-12.609C17.674 87.992 14 92.261 14 92.878c0 2.641 3.057.607 10.83-7.207 6.78-6.816 8.033-8.54 6.892-9.487-1.12-.93-2.996.485-9.558 7.207M157.5 77.718c-3.12.758-8.349 5.089-10.001 8.284-3.512 6.792-.901 16.38 5.64 20.709 3.306 2.187 4.65 2.472 9.883 2.094 4.472-.324 6.619-1.002 8.211-2.594 3.005-3.005 1.659-3.725-2.37-1.269-9.512 5.799-21.678-1.707-20.548-12.678.541-5.256 2.745-8.726 6.908-10.88 6.769-3.5 14.976-1.143 18.444 5.296 1.821 3.382 3.336 4.324 3.329 2.07-.008-2.914-4.288-7.98-8.267-9.786-4.14-1.88-7.216-2.221-11.229-1.246m61.5 5.079c0 1.254 7.448 8.203 8.792 8.203 2.062 0 1.353-1.452-2.584-5.297-3.561-3.477-6.208-4.716-6.208-2.906m10.533 10.17c-6.013 6.032-10.6 11.299-10.194 11.705.407.407 6.007-4.528 12.445-10.966C238.222 87.268 242.809 82 241.978 82c-.832 0-6.432 4.935-12.445 10.967M67.747 84.734c-.215.421-.119 8.416.213 17.766.346 9.725.935 16.144 1.377 15 2.056-5.323 3.483-7.143 6.921-8.83 3.135-1.537 4.287-1.645 7.22-.677 3.819 1.26 7.522 5.239 7.522 8.083 0 3.056 1.8 3.11 2.467.073.347-1.577 1.846-3.998 3.332-5.38 6.149-5.717 13.87-3.97 17.442 3.947 1.515 3.358 2.274 4.239 2.547 2.955.587-2.761-1.728-7.497-4.67-9.551-5.967-4.167-13.026-3.395-17.492 1.913l-2.44 2.9-1.671-2.55c-3.612-5.513-12.387-6.632-17.914-2.284L70 110.145V97.632c0-6.883-.419-12.773-.931-13.089-.512-.317-1.107-.231-1.322.191M172 90.826c0 .454 1.125 1.882 2.5 3.174l2.5 2.349L179.5 94c1.375-1.292 2.5-2.72 2.5-3.174 0-1.386-2.677-.92-4.021.699-1.134 1.367-1.441 1.367-2.951 0-1.868-1.69-3.028-1.958-3.028-.699m60.618 4.983c-.669 1.082 8.109 9.798 8.985 8.922.354-.355.405-1.269.112-2.031-.791-2.062-8.482-7.887-9.097-6.891M1.575 127.917c-1.384 1.529-1.509 2.338-.62 4 .614 1.146 1.662 2.076 2.33 2.068.86-.011.824-.263-.122-.863-.736-.467-1.186-1.922-.999-3.235.279-1.971.86-2.349 3.337-2.168 2.234.163 2.617-.025 1.499-.735-2.227-1.416-3.497-1.197-5.425.933m8.495 2.333c.05 2.999.293 3.683.825 2.323.676-1.724.823-1.75 1.399-.25.354.922 1.162 1.677 1.797 1.677.784 0 .714-.533-.219-1.663-1.07-1.296-1.097-1.755-.122-2.083 1.766-.594 1.554-2.924-.332-3.647-2.945-1.13-3.418-.616-3.348 3.643m7.098 0l.168 4.25.389-3.688c.253-2.399.98-3.843 2.082-4.134 1.205-.317 1.045-.479-.557-.562-2.023-.104-2.233.313-2.082 4.134m14.661-.25c.209 2.2.512 4 .671 4 .159 0 .462-1.8.671-4 .227-2.375-.046-4-.671-4s-.898 1.625-.671 4m4.339.25l.168 4.25.389-3.688c.253-2.399.98-3.843 2.082-4.134 1.205-.317 1.045-.479-.557-.562-2.023-.104-2.233.313-2.082 4.134m42.499-3.583c-.367.366-.615 2.279-.551 4.25.064 1.97.328 2.762.588 1.758.442-1.709.589-1.72 2.314-.158 1.735 1.569 1.813 1.551 1.325-.312-.284-1.089-.006-2.295.618-2.681.844-.521.835-1.065-.035-2.113-1.248-1.504-3.165-1.839-4.259-.744m7 0c-.969.968-.819 7.333.172 7.333.462 0 .758-1.368.659-3.039-.112-1.874.429-3.396 1.41-3.97 1.447-.845 1.448-.933.009-.961-.871-.016-1.884.27-2.25.637m14 0c-1.059 1.058-.773 7.333.333 7.333.55 0 1-1.623 1-3.607 0-2.878.32-3.484 1.582-3 .87.334 1.77.607 2 .607.95 0 .325 3.698-.832 4.925-1.009 1.069-.961 1.238.25.872 2.238-.677 2.504-4.955.404-6.491-1.961-1.434-3.707-1.669-4.737-.639m46.284 3.057c-.274 2.323-.118 3.843.348 3.377.466-.466.69-2.366.499-4.224-.339-3.294-.36-3.273-.847.847m3.112.456c.053 3.601.214 3.945.969 2.069.497-1.238.622-2.987.277-3.887-.435-1.133-.195-1.478.782-1.123.775.281 1.296 1.017 1.159 1.636s.233 1.125.823 1.125c2.067 0 .385-3.503-1.833-3.82-2.031-.289-2.234.083-2.177 4m7.105.07l.168 4.25.397-3.832c.304-2.926.756-3.694 1.914-3.25.834.32 1.705.582 1.935.582.907 0 .354 4.865-.607 5.342-.564.279-.451.394.25.255 2.054-.408 2.179-4.828.179-6.291-3.278-2.397-4.416-1.605-4.236 2.944m16.661-.25c.209 2.2.512 4 .671 4 .159 0 .462-1.8.671-4 .227-2.375-.046-4-.671-4s-.898 1.625-.671 4m4.171 0c0 2.2.388 4 .862 4s.693-1.541.485-3.424c-.29-2.629.032-3.53 1.388-3.884 1.347-.351 1.232-.487-.485-.576-1.978-.102-2.25.368-2.25 3.884m36.667-3.333c-1.059 1.058-.773 7.333.333 7.333.55 0 1-1.623 1-3.607 0-2.878.32-3.484 1.582-3 .87.334 1.77.607 2 .607.95 0 .325 3.698-.832 4.925-1.009 1.069-.961 1.238.25.872 2.238-.677 2.504-4.955.404-6.491-1.961-1.434-3.707-1.669-4.737-.639M222 130c0 2.2.388 4 .862 4s.693-1.541.485-3.424c-.29-2.629.032-3.53 1.388-3.884 1.347-.351 1.232-.487-.485-.576-1.978-.102-2.25.368-2.25 3.884m11.667-3.333c-.969.968-.819 7.333.172 7.333.462 0 .758-1.368.659-3.039-.112-1.874.429-3.396 1.41-3.97 1.447-.845 1.448-.933.009-.961-.871-.016-1.884.27-2.25.637m6.167 3.389c.456 4.777.685 4.729 1.462-.306.399-2.591.203-3.75-.635-3.75-.816 0-1.087 1.33-.827 4.056M244 130c0 2.2.388 4 .862 4s.693-1.541.485-3.424c-.29-2.629.032-3.53 1.388-3.884 1.347-.351 1.232-.487-.485-.576-1.978-.102-2.25.368-2.25 3.884m-233-1.5c0 .917.484 1.505 1.075 1.308.591-.197 1.075-.786 1.075-1.308 0-.523-.484-1.111-1.075-1.308-.591-.197-1.075.391-1.075 1.308m12.602 2.25c-1.004 2.13-1.214 3.21-.485 2.5 1.618-1.576 4.883-1.632 4.883-.083 0 .641.217.949.483.684.598-.599-1.698-6.851-2.517-6.851-.328 0-1.391 1.688-2.364 3.75m55.941-2.819c-.683 1.105.894 2.299 1.818 1.375.95-.951.773-2.306-.302-2.306-.518 0-1.2.419-1.516.931m12.983 2.019c-1.948 3.767-1.932 4.632.055 2.983 1.245-1.034 1.989-1.058 3.5-.114 1.056.659 1.919.947 1.919.64 0-.904-3.01-6.459-3.5-6.459-.247 0-1.135 1.328-1.974 2.95m49.474.55c0 1.925.36 3.5.799 3.5.44 0 .616-1.575.391-3.5-.225-1.925-.585-3.5-.799-3.5-.215 0-.391 1.575-.391 3.5m22.987-.468c-.691 1.668-.971 3.318-.622 3.667.349.349.635.109.635-.532 0-.642.9-1.167 2-1.167s2 .45 2 1 .443 1 .984 1c.541 0 .233-1.575-.685-3.5-2.043-4.283-2.702-4.355-4.312-.468m63.265.468c.011 2.2.216 2.982.455 1.738.239-1.244.23-3.044-.02-4s-.446.062-.435 2.262M6 133c-1.282.828-1.246.972.25.985.963.008 1.75-.435 1.75-.985 0-1.22-.113-1.22-2 0m2 10c0 .661 39.5 1 116.5 1s116.5-.339 116.5-1-39.5-1-116.5-1S8 142.339 8 143m4.907 11.325c-6.298 3.323-9.094 8.484-8.634 15.938.38 6.144 2.193 9.502 7.112 13.175 4.185 3.125 16.838 2.973 21.365-.256 6.165-4.397 3.021-8.002-3.26-3.739-12.065 8.187-26.292-5.526-18.203-17.545 4.177-6.208 13.691-7.312 19.669-2.282 2.328 1.959 3.008 2.132 3.946 1.002 1.76-2.121.307-4.338-4.307-6.572-5.662-2.741-12.157-2.639-17.688.279m71.317-1.528c-.966.646-1.209 4.725-1 16.778.27 15.563.326 15.932 2.483 16.239 2.094.298 2.222-.087 2.5-7.5l.293-7.814 5.871 7.75c4.431 5.849 6.455 7.75 8.25 7.75 1.309 0 2.379-.369 2.379-.82 0-.45-2.219-3.686-4.931-7.191l-4.931-6.371 3.938-1.764c6.33-2.833 7.726-8.891 3.174-13.77-2.383-2.555-3.683-3.027-9.75-3.545-3.85-.328-7.574-.212-8.276.258m68.334-.022c-1.111 1.111-.56 25.127.637 27.753 2.532 5.557 12.453 7.405 17.302 3.222 3.336-2.878 4.449-7.842 4.479-19.965.021-8.478-.214-9.842-1.845-10.715-1.027-.55-2.152-.715-2.5-.368-.347.347-.631 6.181-.631 12.965 0 11-.216 12.549-2 14.333-2.398 2.398-5.746 2.567-8.777.443-2.101-1.471-2.223-2.262-2.223-14.383 0-11.858-.147-12.865-1.942-13.335-1.068-.279-2.193-.256-2.5.05m70.925.075c-.266.266-.483 7.888-.483 16.939v16.456l8.75-.44c5.548-.279 9.936-1.063 11.99-2.143 10.075-5.295 9.446-24.052-.97-28.954-3.075-1.447-18.237-2.908-19.287-1.858m-135.288 8.9l.305 4.75 4.335-.198c5.086-.232 7.165-1.65 7.165-4.889 0-2.936-2.674-4.413-7.989-4.413H87.89l.305 4.75M227 169v12h6.365c7.655 0 11.058-2.142 12.62-7.946 2.395-8.893-3.687-16.054-13.633-16.054H227v12" fill="#1976D2" fill-rule="evenodd"/><path fill-opacity=".285" d="M23.228 79.271c-6.819 6.842-10.563 11.411-11.215 13.684-.538 1.877-.794 3.598-.567 3.824.226.226 1.837.098 3.58-.285C18.777 95.671 39 76.714 39 74.022 39 72.239 36.035 69 34.403 69c-.516 0-5.545 4.622-11.175 10.271m52.807-8.976c-1.97.685-4.452 2.672-5.75 4.603-2.301 3.421-3.143 7.75-1.285 6.602.55-.34 1.01-1.379 1.022-2.309.028-2.136 2.816-5.618 5.662-7.074 4.683-2.395 11.325-.43 14.368 4.249.914 1.407 1.594 6.736 1.994 15.634l.607 13.5.174-12.8c.193-14.25 1.224-17.641 6.14-20.183 4.892-2.53 8.803-1.947 12.633 1.883l3.4 3.4v15.1c0 9.4.377 15.1 1 15.1.619 0 1-5.366 1-14.099 0-17.033-1.033-20.143-7.666-23.078-5.471-2.42-10.986-1.214-14.714 3.217-2.36 2.804-2.593 2.878-3.533 1.123-2.407-4.498-9.51-6.795-15.052-4.868m90.392.455c4.721 1.236 6.991 2.589 11.154 6.651 9.37 9.141 9.969 20.923 1.564 30.742-13.581 15.867-40.062 6.2-40.113-14.643-.017-7.011 3.684-14.557 9.044-18.44 2.323-1.683 3.584-3.06 2.802-3.06-2.588 0-8.662 5.923-10.976 10.702-10.075 20.813 12.524 42.794 33.169 32.262 4.296-2.192 9.637-8.021 11.554-12.609 1.956-4.682 1.698-14.047-.522-18.936-3.619-7.967-13.382-14.615-21.031-14.32-1.555.06-.228.713 3.355 1.651m54.002.631c-6.307 2.937-11.027 8.511-13.045 15.406-4.791 16.368 9.763 33.218 26.521 30.704 5.008-.75 11.006-3.474 13.034-5.918 1.865-2.247.701-1.947-3.495.901-4.386 2.976-8.877 3.931-15.495 3.295-19.313-1.856-27.083-27.396-12.109-39.805 4.602-3.813 13.058-6.393 17.948-5.476 13.06 2.45 22.444 15.678 19.46 27.434-.569 2.243-.686 4.078-.258 4.078 1.171 0 1.984-3.909 1.974-9.5-.028-17.021-18.75-28.47-34.535-21.119m-186.897.567c-1.028 1.663 1.501 4.419 2.833 3.087.732-.732.57-1.529-.54-2.638-1.127-1.127-1.793-1.258-2.293-.449M1.231 95.75L1.5 118.5l18.427.273c10.134.151 18.684-.074 19-.5.315-.425.333-9.098.039-19.273l-.534-18.5-.216 18.25L38 117H3V75h10.5c6.333 0 10.5-.397 10.5-1 0-.609-4.506-1-11.519-1H.962l.269 22.75m20.997-12.479C17.703 87.82 14 92.306 14 93.24c0 2.907 3.028.951 11.713-7.568 6.32-6.197 7.963-8.357 7.128-9.364-.597-.719-1.378-1.308-1.736-1.308-.357 0-4.352 3.722-8.877 8.271m130.7-2.868c-1.945 1.322-4.361 4.231-5.369 6.466-6.01 13.329 8.34 27.007 21.381 20.379 1.893-.961 3.64-2.378 3.884-3.148.338-1.07-.119-1.005-1.941.275-4.74 3.331-9.468 3.902-14.368 1.735-5.658-2.503-8.506-6.962-8.511-13.325-.003-3.848.565-5.364 3.089-8.238 7.482-8.521 17.707-6.83 24.598 4.069 1.037 1.64 1.199 1.667 1.25.211.078-2.219-4.466-7.53-8.01-9.363-4.471-2.312-11.857-1.878-16.003.939m70.051 6.076c2.418 2.464 4.62 4.255 4.894 3.982.656-.656-6.986-8.461-8.284-8.461-.553 0 .973 2.016 3.39 4.479m6.72 6.321c-5.921 5.94-10.436 11.13-10.032 11.533.734.735 22.333-20.122 22.333-21.566 0-1.89-2.218-.08-12.301 10.033m-161.431 8.7l-.168 17 2.081-4.292c5.183-10.691 17.475-9.379 21.285 2.272.545 1.667.948 1.312 2.538-2.24 3.544-7.915 13.051-9.529 18.436-3.129 1.408 1.673 2.56 3.908 2.56 4.966 0 1.058.45 1.923 1 1.923 1.303 0 1.266-.427-.379-4.364-.758-1.815-2.619-4.276-4.135-5.468-4.864-3.826-14.18-2.299-17.838 2.924l-1.474 2.104-1.601-2.444c-2.002-3.056-5.632-4.752-10.17-4.752-3.75 0-9.403 2.42-9.403 4.026a.975.975 0 01-.971.974c-.563 0-1.101-5.561-1.282-13.25-.297-12.695-.317-12.538-.479 3.75M172 90.826c0 .454 1.044 1.806 2.32 3.005l2.321 2.18 2.179-2.32c2.734-2.91 2.875-4.63.18-2.191-1.864 1.687-2.124 1.698-3.829.155-1.998-1.809-3.171-2.115-3.171-.829m61 4.758c0 .55 2.025 2.987 4.5 5.416 2.475 2.429 4.5 3.966 4.5 3.416 0-.55-2.025-2.987-4.5-5.416-2.475-2.429-4.5-3.966-4.5-3.416M23.643 130.793c-1.247 2.743-1.299 3.187-.199 1.707.818-1.1 1.949-2.539 2.512-3.197.563-.659.653-1.427.199-1.707-.454-.281-1.584 1.158-2.512 3.197m8.609-.293c.011 2.2.216 2.982.455 1.738.239-1.244.23-3.044-.02-4s-.446.062-.435 2.262m60.96-1.468c-.667 1.067-1.198 2.284-1.182 2.704.017.42.507-.055 1.089-1.056 1.024-1.759 1.107-1.759 2.525 0 1.332 1.653 1.357 1.591.276-.68-.655-1.375-1.259-2.592-1.343-2.705-.084-.112-.698.669-1.365 1.737m11.352-.739c.376.986.935 1.541 1.243 1.233.308-.307.001-1.114-.683-1.793-.988-.98-1.102-.865-.56.56m41.357 1.956c-.298 2.15-.145 3.375.358 2.872.483-.483.716-2.17.519-3.749-.33-2.644-.399-2.574-.877.877m20.809-2.606c-.286.471.108 1.437.875 2.146 1.546 1.429 1.842.464.505-1.646-.473-.746-1.094-.971-1.38-.5m6.522 2.857c.011 2.2.216 2.982.455 1.738.239-1.244.23-3.044-.02-4s-.446.062-.435 2.262m45.312-2.207c.376.986.935 1.541 1.243 1.233.308-.307.001-1.114-.683-1.793-.988-.98-1.102-.865-.56.56M10 129.893c0 .491.739 1.176 1.641 1.523 1.373.527 1.435.38.378-.893-1.44-1.735-2.019-1.916-2.019-.63m230.195 1.607c.02 1.65.244 2.204.498 1.231.254-.973.237-2.323-.037-3-.274-.677-.481.119-.461 1.769m-213.164-1c0 .55.436 1.675.969 2.5.533.825.969 1.05.969.5s-.436-1.675-.969-2.5c-.533-.825-.969-1.05-.969-.5m137.593 1.039c-.965 2.514-.681 3.163.498 1.136.584-1.004.851-2.036.593-2.293-.257-.258-.749.263-1.091 1.157m-60.06 1.168c-.542 1.425-.428 1.54.56.56.684-.679.991-1.486.683-1.793-.308-.308-.867.247-1.243 1.233m-88.927 20.758c-10.718 3.821-14.547 15.402-8.398 25.403 5.09 8.281 20.681 9.546 27.221 2.209 1.61-1.806 1.713-2.352.575-3.055-.907-.561-2.611-.023-4.942 1.561-6.177 4.197-15.656 2.785-19.372-2.886-4.146-6.327-2.399-14.034 4.177-18.427 4.578-3.059 9.813-2.956 14.592.287 3.507 2.381 6.51 2.671 6.51.629 0-2.628-8.816-7.098-14-7.098-1.375 0-4.238.619-6.363 1.377M84 169c0 15.333.083 16 2 16 1.81 0 2-.667 2-7 0-3.85.338-6.975.75-6.945.412.03 3.135 3.18 6.051 7 4.101 5.374 5.874 6.945 7.836 6.945 2.448 0 2.36-.221-2.551-6.392-5.677-7.134-6.149-8.608-2.76-8.608 6.334 0 9.262-10.819 4.039-14.927-2.124-1.671-4.063-2.073-10-2.073H84v16m68.006-5.25c.006 11.837 1.04 17.076 3.876 19.643 2.595 2.349 8.467 3.119 12.149 1.594 4.976-2.061 5.969-5.295 5.969-19.437 0-11.883-.106-12.55-2-12.55-1.896 0-2 .667-2 12.845 0 14.301-.762 16.155-6.638 16.155-6.177 0-6.827-1.439-7.191-15.917-.306-12.122-.471-13.083-2.25-13.083-1.776 0-1.921.813-1.915 10.75M223 169.094v16.093l9.937-.343c9.427-.326 10.094-.495 13.015-3.296 8.12-7.785 5.543-22.936-4.623-27.184-1.796-.75-6.654-1.364-10.797-1.364H223v16.094M88 162v5h4.066c5.544 0 7.934-1.457 7.934-4.835 0-3.934-1.716-5.165-7.2-5.165H88v5m139 7.645v12.644l6.713-.627c5.594-.522 7.19-1.104 9.574-3.488 3.724-3.723 4.594-9.515 2.191-14.579-2.229-4.697-5.949-6.595-12.928-6.595H227v12.645" fill="#1976D2" fill-rule="evenodd"/></svg>